<svg width="421" height="126" viewBox="0 0 421 126" fill="none" xmlns="http://www.w3.org/2000/svg">
<path d="M122.678 56.5907L68.0895 56.5907L68.0895 35.4595L100.96 35.4595L100.96 23.133L68.0895 23.133L68.0895 1.41479L122.678 1.41478L122.678 56.5907Z" fill="#4C51BF"/>
<path d="M6.10352e-05 69.5041L54.589 69.5042L54.589 90.6354L21.7182 90.6353L21.7182 102.962L54.589 102.962L54.589 124.68L5.86233e-05 124.68L6.10352e-05 69.5041Z" fill="#4C51BF"/>
<path d="M0 56.0037V1.41479H21.1312V34.2855H33.4577V27.8288H55.1759V56.0037H0Z" fill="#4C51BF"/>
<path d="M55.838 25.2943H33.3622V1.32007H55.838V25.2943Z" fill="#090909"/>
<path d="M123.265 69.5041L123.265 124.093L102.134 124.093L102.134 91.2223L89.8077 91.2223L89.8077 97.679L68.0895 97.679L68.0895 69.5041L123.265 69.5041Z" fill="#4C51BF"/>
<path d="M67.825 100.214L90.3008 100.214L90.3008 124.188L67.825 124.188L67.825 100.214Z" fill="#090909"/>
<path d="M150.505 66.8128H153.67C157.301 66.8128 159.902 66.3467 161.472 65.4144C163.042 64.4821 163.827 62.9856 163.827 60.9248C163.827 58.864 163.042 57.3675 161.472 56.4352C159.902 55.5029 157.301 55.0368 153.67 55.0368H150.505V66.8128ZM150.505 44.2912H153.155C157.669 44.2912 159.926 42.5003 159.926 38.9184C159.926 35.3365 157.669 33.5456 153.155 33.5456H150.505V44.2912ZM136.08 22.5056H157.571C162.674 22.5056 166.55 23.7323 169.2 26.1856C171.849 28.6389 173.174 32.1717 173.174 36.784C173.174 39.5808 172.659 41.9115 171.629 43.776C170.647 45.5915 169.126 47.1371 167.065 48.4128C169.126 48.8053 170.868 49.4187 172.291 50.2528C173.763 51.0379 174.941 52.0192 175.824 53.1968C176.756 54.3744 177.418 55.6992 177.811 57.1712C178.204 58.6432 178.4 60.2133 178.4 61.8816C178.4 64.4821 177.934 66.7883 177.001 68.8C176.118 70.8117 174.842 72.5045 173.174 73.8784C171.555 75.2523 169.568 76.2827 167.213 76.9696C164.857 77.6565 162.208 78 159.264 78H136.08V22.5056ZM199.11 40.2432V61.5136C199.11 66.1749 201.367 68.5056 205.881 68.5056C210.395 68.5056 212.652 66.1749 212.652 61.5136V40.2432H225.974V64.0896C225.974 69.1925 224.281 73.0197 220.895 75.5712C217.559 78.1227 212.554 79.3984 205.881 79.3984C199.208 79.3984 194.178 78.1227 190.793 75.5712C187.456 73.0197 185.788 69.1925 185.788 64.0896V40.2432H199.11ZM248.712 72.848L230.459 40.2432H245.915L255.998 59.6L265.787 40.2432H281.096L250.773 96.8416H235.832L248.712 72.848ZM296.267 58.9376C296.267 60.2133 296.488 61.3909 296.93 62.4704C297.42 63.5008 298.034 64.4085 298.77 65.1936C299.555 65.9787 300.463 66.592 301.493 67.0336C302.572 67.4752 303.701 67.696 304.879 67.696C306.056 67.696 307.16 67.4752 308.19 67.0336C309.27 66.592 310.178 65.9787 310.914 65.1936C311.699 64.4085 312.312 63.5008 312.754 62.4704C313.244 61.3909 313.49 60.2379 313.49 59.0112C313.49 57.8336 313.244 56.7296 312.754 55.6992C312.312 54.6197 311.699 53.6875 310.914 52.9024C310.178 52.1173 309.27 51.504 308.19 51.0624C307.16 50.6208 306.056 50.4 304.879 50.4C303.701 50.4 302.572 50.6208 301.493 51.0624C300.463 51.504 299.555 52.1173 298.77 52.9024C298.034 53.6875 297.42 54.5952 296.93 55.6256C296.488 56.656 296.267 57.76 296.267 58.9376ZM282.21 58.7904C282.21 55.9936 282.774 53.3931 283.903 50.9888C285.031 48.5355 286.601 46.4256 288.613 44.6592C290.625 42.8437 293.004 41.4208 295.752 40.3904C298.549 39.36 301.591 38.8448 304.879 38.8448C308.117 38.8448 311.11 39.36 313.858 40.3904C316.655 41.3717 319.059 42.7701 321.071 44.5856C323.131 46.352 324.726 48.4864 325.855 50.9888C326.983 53.4421 327.547 56.1653 327.547 59.1584C327.547 62.1515 326.959 64.8992 325.781 67.4016C324.652 69.8549 323.082 71.9893 321.071 73.8048C319.059 75.5712 316.63 76.9451 313.784 77.9264C310.987 78.9077 307.945 79.3984 304.658 79.3984C301.419 79.3984 298.426 78.9077 295.679 77.9264C292.931 76.9451 290.551 75.5467 288.539 73.7312C286.577 71.9157 285.031 69.7568 283.903 67.2544C282.774 64.7029 282.21 61.8816 282.21 58.7904ZM365.318 59.232C365.318 58.0544 365.098 56.9504 364.656 55.92C364.264 54.8405 363.675 53.9083 362.89 53.1232C362.105 52.3381 361.172 51.7248 360.093 51.2832C359.062 50.7925 357.934 50.5472 356.707 50.5472C355.53 50.5472 354.426 50.768 353.395 51.2096C352.365 51.6512 351.457 52.2645 350.672 53.0496C349.936 53.8347 349.323 54.7669 348.832 55.8464C348.39 56.8768 348.17 57.9808 348.17 59.1584C348.17 60.336 348.39 61.44 348.832 62.4704C349.274 63.5008 349.887 64.4085 350.672 65.1936C351.457 65.9296 352.365 66.5429 353.395 67.0336C354.475 67.4752 355.603 67.696 356.781 67.696C357.958 67.696 359.062 67.4752 360.093 67.0336C361.123 66.592 362.006 65.9787 362.742 65.1936C363.528 64.4085 364.141 63.5008 364.582 62.4704C365.073 61.44 365.318 60.3605 365.318 59.232ZM348.538 96.8416H335.216V40.2432H348.538V44.4384C351.384 40.8565 355.26 39.0656 360.166 39.0656C362.865 39.0656 365.368 39.6053 367.674 40.6848C370.029 41.7152 372.065 43.1381 373.782 44.9536C375.5 46.7691 376.825 48.9035 377.757 51.3568C378.738 53.8101 379.229 56.4352 379.229 59.232C379.229 62.0288 378.738 64.6293 377.757 67.0336C376.825 69.4379 375.5 71.5477 373.782 73.3632C372.114 75.1787 370.127 76.6016 367.821 77.632C365.515 78.6624 363.012 79.1776 360.314 79.1776C355.603 79.1776 351.678 77.5584 348.538 74.32V96.8416ZM411.846 49.9584C409.393 48.6827 406.989 48.0448 404.634 48.0448C403.407 48.0448 402.401 48.2901 401.616 48.7808C400.88 49.2715 400.512 49.9339 400.512 50.768C400.512 51.2096 400.561 51.5776 400.659 51.872C400.806 52.1173 401.076 52.3627 401.469 52.608C401.91 52.8533 402.524 53.0741 403.309 53.2704C404.143 53.4667 405.222 53.712 406.547 54.0064C410.227 54.7424 412.975 56.0672 414.79 57.9808C416.606 59.8453 417.514 62.2496 417.514 65.1936C417.514 67.4016 417.072 69.3888 416.189 71.1552C415.306 72.9216 414.079 74.4181 412.509 75.6448C410.939 76.8224 409.05 77.7301 406.842 78.368C404.634 79.0549 402.205 79.3984 399.555 79.3984C394.452 79.3984 389.423 77.9509 384.467 75.056L389.325 65.6352C393.054 68.1867 396.587 69.4624 399.923 69.4624C401.15 69.4624 402.156 69.1925 402.941 68.6528C403.726 68.1131 404.118 67.4261 404.118 66.592C404.118 66.1013 404.045 65.7088 403.898 65.4144C403.799 65.0709 403.554 64.7765 403.162 64.5312C402.769 64.2368 402.18 63.9915 401.395 63.7952C400.659 63.5499 399.678 63.3045 398.451 63.0592C394.33 62.2251 391.435 60.9984 389.766 59.3792C388.147 57.7109 387.338 55.4293 387.338 52.5344C387.338 50.4245 387.73 48.5355 388.515 46.8672C389.3 45.1499 390.429 43.7024 391.901 42.5248C393.373 41.3472 395.139 40.4395 397.2 39.8016C399.31 39.1637 401.64 38.8448 404.192 38.8448C408.363 38.8448 412.411 39.6544 416.336 41.2736L411.846 49.9584Z" fill="black"/>
<path d="M303.547 111.734L302.07 112.609C301.794 112.13 301.531 111.818 301.281 111.672C301.021 111.505 300.685 111.422 300.273 111.422C299.768 111.422 299.349 111.565 299.015 111.852C298.682 112.133 298.515 112.487 298.515 112.914C298.515 113.503 298.953 113.977 299.828 114.336L301.031 114.828C302.01 115.224 302.726 115.708 303.179 116.281C303.633 116.849 303.859 117.547 303.859 118.375C303.859 119.484 303.489 120.401 302.75 121.125C302.005 121.854 301.08 122.219 299.976 122.219C298.929 122.219 298.065 121.909 297.383 121.289C296.711 120.669 296.291 119.797 296.125 118.672L297.969 118.266C298.052 118.974 298.198 119.464 298.406 119.734C298.781 120.255 299.328 120.516 300.047 120.516C300.614 120.516 301.086 120.326 301.461 119.945C301.836 119.565 302.023 119.083 302.023 118.5C302.023 118.266 301.989 118.052 301.922 117.859C301.859 117.661 301.758 117.482 301.617 117.32C301.482 117.154 301.304 117 301.086 116.859C300.867 116.714 300.607 116.576 300.304 116.445L299.14 115.961C297.489 115.263 296.664 114.242 296.664 112.898C296.664 111.992 297.01 111.234 297.703 110.625C298.396 110.01 299.258 109.703 300.289 109.703C301.679 109.703 302.765 110.38 303.547 111.734ZM311.328 114.391H313.094V122H311.328V121.203C310.604 121.88 309.825 122.219 308.992 122.219C307.94 122.219 307.07 121.839 306.383 121.078C305.7 120.302 305.359 119.333 305.359 118.172C305.359 117.031 305.7 116.081 306.383 115.32C307.065 114.56 307.919 114.18 308.945 114.18C309.83 114.18 310.625 114.544 311.328 115.273V114.391ZM307.156 118.172C307.156 118.901 307.351 119.495 307.742 119.953C308.143 120.417 308.648 120.648 309.258 120.648C309.909 120.648 310.435 120.424 310.836 119.977C311.237 119.513 311.437 118.924 311.437 118.211C311.437 117.497 311.237 116.909 310.836 116.445C310.435 115.992 309.914 115.766 309.273 115.766C308.669 115.766 308.164 115.995 307.758 116.453C307.357 116.917 307.156 117.49 307.156 118.172ZM317.07 108.805V122H315.312V108.805H317.07ZM326.226 118.609H320.773C320.82 119.234 321.023 119.732 321.383 120.102C321.742 120.466 322.203 120.648 322.765 120.648C323.203 120.648 323.565 120.544 323.851 120.336C324.133 120.128 324.453 119.742 324.812 119.18L326.297 120.008C326.067 120.398 325.825 120.734 325.57 121.016C325.315 121.292 325.041 121.521 324.75 121.703C324.458 121.88 324.143 122.01 323.804 122.094C323.466 122.177 323.099 122.219 322.703 122.219C321.567 122.219 320.656 121.854 319.969 121.125C319.281 120.391 318.937 119.417 318.937 118.203C318.937 117 319.271 116.026 319.937 115.281C320.609 114.547 321.5 114.18 322.609 114.18C323.729 114.18 324.614 114.536 325.265 115.25C325.911 115.958 326.234 116.94 326.234 118.195L326.226 118.609ZM324.422 117.172C324.177 116.234 323.586 115.766 322.648 115.766C322.435 115.766 322.234 115.799 322.047 115.867C321.859 115.93 321.687 116.023 321.531 116.148C321.38 116.268 321.25 116.414 321.14 116.586C321.031 116.758 320.948 116.953 320.89 117.172H324.422ZM332.578 115.688L331.125 116.461C330.896 115.992 330.612 115.758 330.273 115.758C330.112 115.758 329.974 115.812 329.859 115.922C329.745 116.026 329.687 116.161 329.687 116.328C329.687 116.62 330.026 116.909 330.703 117.195C331.635 117.596 332.263 117.966 332.586 118.305C332.909 118.643 333.07 119.099 333.07 119.672C333.07 120.406 332.799 121.021 332.258 121.516C331.732 121.984 331.096 122.219 330.351 122.219C329.075 122.219 328.172 121.596 327.64 120.352L329.14 119.656C329.349 120.021 329.508 120.253 329.617 120.352C329.83 120.549 330.086 120.648 330.383 120.648C330.976 120.648 331.273 120.378 331.273 119.836C331.273 119.523 331.044 119.232 330.586 118.961C330.409 118.872 330.232 118.786 330.054 118.703C329.877 118.62 329.698 118.534 329.515 118.445C329.005 118.195 328.646 117.945 328.437 117.695C328.172 117.378 328.039 116.969 328.039 116.469C328.039 115.807 328.265 115.26 328.719 114.828C329.182 114.396 329.745 114.18 330.406 114.18C331.38 114.18 332.104 114.682 332.578 115.688ZM339.929 122V109.938H342.461C343.674 109.938 344.633 110.057 345.336 110.297C346.091 110.531 346.776 110.93 347.39 111.492C348.635 112.628 349.258 114.12 349.258 115.969C349.258 117.823 348.609 119.323 347.312 120.469C346.661 121.042 345.979 121.44 345.265 121.664C344.599 121.888 343.653 122 342.429 122H339.929ZM341.75 120.289H342.57C343.388 120.289 344.067 120.203 344.609 120.031C345.151 119.849 345.64 119.56 346.078 119.164C346.974 118.346 347.422 117.281 347.422 115.969C347.422 114.646 346.979 113.573 346.094 112.75C345.297 112.016 344.122 111.648 342.57 111.648H341.75V120.289ZM356.828 114.391H358.594V122H356.828V121.203C356.104 121.88 355.325 122.219 354.492 122.219C353.44 122.219 352.57 121.839 351.883 121.078C351.2 120.302 350.859 119.333 350.859 118.172C350.859 117.031 351.2 116.081 351.883 115.32C352.565 114.56 353.419 114.18 354.445 114.18C355.33 114.18 356.125 114.544 356.828 115.273V114.391ZM352.656 118.172C352.656 118.901 352.851 119.495 353.242 119.953C353.643 120.417 354.148 120.648 354.758 120.648C355.409 120.648 355.935 120.424 356.336 119.977C356.737 119.513 356.937 118.924 356.937 118.211C356.937 117.497 356.737 116.909 356.336 116.445C355.935 115.992 355.414 115.766 354.773 115.766C354.169 115.766 353.664 115.995 353.258 116.453C352.857 116.917 352.656 117.49 352.656 118.172ZM365.234 115.688L363.781 116.461C363.552 115.992 363.268 115.758 362.929 115.758C362.768 115.758 362.63 115.812 362.515 115.922C362.401 116.026 362.344 116.161 362.344 116.328C362.344 116.62 362.682 116.909 363.359 117.195C364.291 117.596 364.919 117.966 365.242 118.305C365.565 118.643 365.726 119.099 365.726 119.672C365.726 120.406 365.455 121.021 364.914 121.516C364.388 121.984 363.752 122.219 363.008 122.219C361.732 122.219 360.828 121.596 360.297 120.352L361.797 119.656C362.005 120.021 362.164 120.253 362.273 120.352C362.487 120.549 362.742 120.648 363.039 120.648C363.633 120.648 363.929 120.378 363.929 119.836C363.929 119.523 363.7 119.232 363.242 118.961C363.065 118.872 362.888 118.786 362.711 118.703C362.534 118.62 362.354 118.534 362.172 118.445C361.661 118.195 361.302 117.945 361.094 117.695C360.828 117.378 360.695 116.969 360.695 116.469C360.695 115.807 360.922 115.26 361.375 114.828C361.838 114.396 362.401 114.18 363.062 114.18C364.036 114.18 364.76 114.682 365.234 115.688ZM367.312 108.805H369.07V115.023C369.695 114.461 370.385 114.18 371.14 114.18C372 114.18 372.687 114.458 373.203 115.016C373.64 115.5 373.859 116.273 373.859 117.336V122H372.101V117.5C372.101 116.891 371.992 116.451 371.773 116.18C371.56 115.904 371.213 115.766 370.734 115.766C370.12 115.766 369.687 115.956 369.437 116.336C369.192 116.721 369.07 117.383 369.07 118.32V122H367.312V108.805ZM377.851 108.805V115.273C378.554 114.544 379.351 114.18 380.242 114.18C381.268 114.18 382.122 114.562 382.804 115.328C383.487 116.089 383.828 117.036 383.828 118.172C383.828 119.344 383.484 120.312 382.797 121.078C382.114 121.839 381.252 122.219 380.211 122.219C379.33 122.219 378.544 121.88 377.851 121.203V122H376.094V108.805H377.851ZM382.031 118.25C382.031 117.521 381.833 116.927 381.437 116.469C381.036 116 380.534 115.766 379.929 115.766C379.284 115.766 378.758 115.992 378.351 116.445C377.95 116.893 377.75 117.477 377.75 118.195C377.75 118.935 377.948 119.526 378.344 119.969C378.739 120.422 379.26 120.648 379.906 120.648C380.515 120.648 381.021 120.422 381.422 119.969C381.828 119.51 382.031 118.938 382.031 118.25ZM385.328 118.141C385.328 117.042 385.721 116.107 386.508 115.336C387.294 114.565 388.252 114.18 389.383 114.18C390.518 114.18 391.482 114.568 392.273 115.344C393.054 116.12 393.445 117.073 393.445 118.203C393.445 119.344 393.052 120.299 392.265 121.07C391.474 121.836 390.502 122.219 389.351 122.219C388.211 122.219 387.255 121.828 386.484 121.047C385.713 120.276 385.328 119.307 385.328 118.141ZM387.125 118.172C387.125 118.932 387.328 119.534 387.734 119.977C388.151 120.424 388.7 120.648 389.383 120.648C390.07 120.648 390.62 120.427 391.031 119.984C391.442 119.542 391.648 118.951 391.648 118.211C391.648 117.471 391.442 116.88 391.031 116.438C390.614 115.99 390.065 115.766 389.383 115.766C388.711 115.766 388.166 115.99 387.75 116.438C387.333 116.885 387.125 117.464 387.125 118.172ZM400.922 114.391H402.687V122H400.922V121.203C400.198 121.88 399.419 122.219 398.586 122.219C397.534 122.219 396.664 121.839 395.976 121.078C395.294 120.302 394.953 119.333 394.953 118.172C394.953 117.031 395.294 116.081 395.976 115.32C396.659 114.56 397.513 114.18 398.539 114.18C399.424 114.18 400.219 114.544 400.922 115.273V114.391ZM396.75 118.172C396.75 118.901 396.945 119.495 397.336 119.953C397.737 120.417 398.242 120.648 398.851 120.648C399.502 120.648 400.028 120.424 400.429 119.977C400.83 119.513 401.031 118.924 401.031 118.211C401.031 117.497 400.83 116.909 400.429 116.445C400.028 115.992 399.508 115.766 398.867 115.766C398.263 115.766 397.758 115.995 397.351 116.453C396.95 116.917 396.75 117.49 396.75 118.172ZM404.906 114.391H406.664V115.07C406.987 114.732 407.273 114.5 407.523 114.375C407.778 114.245 408.08 114.18 408.429 114.18C408.893 114.18 409.377 114.331 409.883 114.633L409.078 116.242C408.745 116.003 408.419 115.883 408.101 115.883C407.143 115.883 406.664 116.607 406.664 118.055V122H404.906V114.391ZM416.39 108.805H418.156V122H416.39V121.203C415.698 121.88 414.914 122.219 414.039 122.219C412.997 122.219 412.133 121.839 411.445 121.078C410.763 120.302 410.422 119.333 410.422 118.172C410.422 117.036 410.763 116.089 411.445 115.328C412.122 114.562 412.974 114.18 414 114.18C414.89 114.18 415.687 114.544 416.39 115.273V108.805ZM412.219 118.172C412.219 118.901 412.414 119.495 412.804 119.953C413.205 120.417 413.711 120.648 414.32 120.648C414.971 120.648 415.497 120.424 415.898 119.977C416.299 119.513 416.5 118.924 416.5 118.211C416.5 117.497 416.299 116.909 415.898 116.445C415.497 115.992 414.976 115.766 414.336 115.766C413.732 115.766 413.226 115.995 412.82 116.453C412.419 116.917 412.219 117.49 412.219 118.172Z" fill="black"/>
</svg>
